<?xml version="1.0" standalone="no"?>
<!DOCTYPE svg PUBLIC "-//W3C//DTD SVG 20010904//EN"
 "http://www.w3.org/TR/2001/REC-SVG-20010904/DTD/svg10.dtd">
<svg version="1.0" xmlns="http://www.w3.org/2000/svg"
 width="500.000000pt" height="500.000000pt" viewBox="0 0 500.000000 500.000000"
 preserveAspectRatio="xMidYMid meet">
<metadata>
Created by potrace 1.14, written by Peter Selinger 2001-2017
</metadata>
<g transform="translate(0.000000,500.000000) scale(0.100000,-0.100000)"
fill="#000000" stroke="none">
<path d="M0 2500 l0 -2500 2500 0 2500 0 0 2500 0 2500 -2500 0 -2500 0 0
-2500z m920 903 l0 -38 84 -16 c122 -24 240 -83 304 -153 88 -97 97 -125 98
-313 l1 -162 50 -63 c60 -76 85 -122 81 -150 -3 -23 -13 -30 -70 -52 -37 -15
-38 -16 -38 -69 0 -29 -3 -57 -7 -61 -5 -4 -9 -17 -10 -29 -13 -135 -20 -170
-38 -183 -13 -10 -51 -14 -130 -14 -100 0 -116 -2 -145 -22 -64 -44 -71 -72
-68 -263 3 -191 -5 -221 -62 -245 -34 -14 -103 -7 -136 15 -47 31 -85 160
-104 355 -7 63 -16 117 -21 118 -5 2 -9 17 -9 33 0 16 -5 29 -11 29 -9 0 -10
35 -7 125 5 113 4 125 -12 130 -41 13 -97 65 -125 116 -30 54 -30 54 -27 202
1 81 7 160 13 175 19 50 62 103 105 128 l41 24 7 103 c4 56 9 126 13 156 l6
54 -35 -6 c-63 -10 -186 -67 -232 -108 -56 -50 -101 -138 -122 -242 -14 -67
-14 -92 -4 -178 7 -60 18 -106 27 -115 11 -10 15 -42 17 -112 2 -81 1 -91 -7
-59 -6 20 -16 37 -23 37 -17 0 -28 51 -29 130 -1 36 -5 104 -9 151 -15 152 38
314 130 399 47 43 162 102 238 121 40 10 44 14 50 50 l6 39 105 0 105 0 0 -37z
m1760 -558 l0 -265 -55 0 c-42 0 -55 4 -55 15 0 11 -7 10 -35 -7 -43 -25 -113
-21 -154 9 -93 68 -89 226 8 286 43 26 118 28 155 4 l26 -17 0 120 0 120 55 0
55 0 0 -265z m-561 218 c19 -42 191 -472 191 -479 0 -3 -28 -4 -61 -2 l-61 3
-17 45 -17 45 -99 0 -99 0 -17 -45 -17 -45 -61 -3 c-33 -2 -61 -1 -61 2 0 3
41 108 91 233 50 126 95 238 100 251 7 19 16 22 62 22 49 0 55 -2 66 -27z
m741 7 c11 -11 20 -29 20 -40 0 -24 -42 -70 -63 -70 -27 0 -67 41 -67 67 0 57
69 84 110 43z m1718 -112 c3 -57 4 -58 32 -58 29 0 30 -2 30 -45 0 -43 -1 -45
-30 -45 l-31 0 3 -67 c3 -63 5 -68 25 -67 18 0 25 -9 37 -43 15 -44 15 -44
-10 -53 -60 -23 -131 -2 -152 45 -7 14 -12 61 -12 105 0 74 -1 79 -22 82 -19
2 -24 10 -26 46 -3 39 -1 42 22 42 25 0 26 2 26 61 l0 60 53 -3 52 -3 3 -57z
m-1421 -75 c21 -14 23 -14 23 1 0 13 11 16 55 16 l55 0 0 -160 0 -160 -55 0
c-42 0 -55 4 -55 15 0 12 -8 11 -40 -6 -100 -52 -220 26 -220 143 0 114 73
185 175 171 22 -3 50 -12 62 -20z m407 18 c54 -13 61 -23 42 -59 -14 -28 -20
-30 -60 -29 -58 2 -86 -22 -86 -74 0 -51 39 -83 91 -75 33 5 37 3 52 -30 l17
-35 -35 -14 c-68 -29 -134 -16 -191 39 -46 44 -61 90 -50 150 9 45 62 104 111
121 48 17 58 17 109 6z m351 -20 c34 -19 75 -92 75 -133 l0 -28 -115 0 c-94 0
-115 -3 -115 -14 0 -39 81 -59 124 -31 21 14 27 14 60 -1 20 -10 36 -21 36
-24 0 -13 -46 -50 -82 -65 -132 -55 -279 55 -249 186 27 117 157 171 266 110z
m371 18 c28 -7 54 -23 69 -41 24 -28 25 -36 25 -154 l0 -124 -55 0 -55 0 0
102 c0 80 -3 105 -17 120 -21 24 -58 23 -83 -2 -17 -17 -20 -33 -20 -120 l0
-100 -55 0 -55 0 0 160 0 160 55 0 c42 0 55 -3 55 -15 0 -12 6 -12 37 5 44 23
41 23 99 9z m-1418 -187 c3 -213 -4 -254 -51 -282 -37 -23 -105 -26 -131 -7
-17 12 -17 17 -5 50 9 27 19 37 34 37 42 0 45 15 45 208 l0 183 53 -3 52 -3 3
-183z"/>
<path d="M730 3393 l0 -28 80 3 c77 3 80 4 80 28 0 23 -2 24 -80 24 l-80 0 0
-27z"/>
<path d="M716 3228 c-13 -216 -15 -225 -48 -239 -40 -16 -102 -90 -116 -137
-7 -22 -12 -97 -12 -168 0 -103 4 -137 19 -169 20 -46 80 -102 123 -117 l30
-11 -3 -120 c-3 -88 0 -122 9 -125 6 -2 12 -17 12 -33 0 -16 5 -29 10 -29 6 0
10 13 10 29 0 17 5 33 10 36 6 3 10 34 10 68 0 34 3 86 6 115 6 46 9 52 31 52
65 0 162 75 187 143 8 23 17 95 20 159 7 155 -7 205 -75 269 l-49 47 0 171 0
171 -84 0 -83 0 -7 -112z"/>
<path d="M920 3171 l0 -170 30 -21 c16 -12 42 -42 57 -68 27 -46 28 -51 28
-197 0 -120 -4 -159 -18 -197 -30 -78 -133 -158 -203 -158 -8 0 -14 -41 -19
-120 -4 -66 -11 -120 -16 -120 -5 0 -9 -13 -9 -30 0 -16 -5 -30 -12 -30 -27 0
9 -296 47 -387 27 -65 51 -83 111 -83 45 0 56 4 73 26 19 25 21 40 21 200 0
179 6 212 43 252 43 46 75 56 189 56 82 1 111 5 122 16 8 9 16 46 19 92 5 65
3 78 -11 84 -14 5 -13 8 8 13 22 6 25 13 28 61 4 60 19 85 60 94 51 11 58 21
40 58 -8 18 -39 62 -67 97 -28 35 -52 69 -53 75 -1 6 -2 79 -3 161 -1 167 -7
189 -72 278 -63 85 -205 159 -350 181 l-43 6 0 -169z"/>
<path d="M2450 2790 c-26 -26 -26 -81 0 -105 46 -42 123 -7 123 54 0 64 -78
96 -123 51z"/>
<path d="M2026 2860 c-14 -39 -26 -73 -26 -76 0 -2 25 -4 55 -4 30 0 55 2 55
5 0 7 -50 138 -54 142 -2 2 -15 -28 -30 -67z"/>
<path d="M3051 2784 c-12 -15 -21 -33 -21 -40 0 -29 24 -64 52 -73 53 -19 98
15 98 73 0 63 -89 90 -129 40z"/>
<path d="M3805 2832 c-20 -4 -45 -28 -45 -44 0 -4 27 -8 60 -8 44 0 60 4 60
14 0 25 -40 45 -75 38z"/>
</g>
</svg>
