<?xml version="1.0" standalone="no"?>
<!DOCTYPE svg PUBLIC "-//W3C//DTD SVG 20010904//EN"
 "http://www.w3.org/TR/2001/REC-SVG-20010904/DTD/svg10.dtd">
<svg version="1.0" xmlns="http://www.w3.org/2000/svg"
 width="708.000000pt" height="708.000000pt" viewBox="0 0 708.000000 708.000000"
 preserveAspectRatio="xMidYMid meet">
<metadata>
Created by potrace 1.11, written by Peter Selinger 2001-2013
</metadata>
<g transform="translate(0.000000,708.000000) scale(0.100000,-0.100000)"
fill="#000000" stroke="none">
<path d="M720 3435 l0 -465 325 0 c281 0 325 2 325 15 0 12 -38 15 -257 17
l-258 3 -2 445 -2 445 -66 3 -65 3 0 -466z"/>
<path d="M1428 3558 c-3 -189 -1 -358 4 -378 35 -134 192 -220 382 -207 143 9
238 56 296 147 43 67 49 124 50 488 0 245 -2 292 -14 292 -12 0 -15 -55 -19
-327 -5 -377 -8 -393 -76 -463 -115 -118 -358 -123 -444 -9 -43 58 -47 93 -47
457 l0 342 -64 0 -63 0 -5 -342z"/>
<path d="M2445 3888 c-3 -7 -4 -215 -3 -462 2 -347 6 -450 15 -453 10 -4 13
86 15 413 l3 418 57 -130 c31 -71 85 -192 118 -269 34 -77 83 -189 110 -250
26 -60 55 -127 63 -147 29 -70 41 -57 123 128 191 433 284 647 284 655 0 5 5
9 10 9 7 0 10 -145 10 -415 l0 -416 63 3 62 3 0 460 0 460 -64 0 -64 0 -71
-161 c-39 -88 -114 -258 -166 -377 -52 -119 -98 -217 -101 -217 -3 0 -15 24
-26 53 -12 28 -69 160 -128 292 -59 132 -124 278 -144 325 l-37 85 -62 3 c-44
2 -64 -1 -67 -10z"/>
<path d="M4007 3893 c-3 -5 -49 -114 -102 -243 -54 -129 -110 -264 -125 -300
-119 -283 -150 -359 -150 -369 0 -7 9 -11 21 -9 21 3 28 16 115 243 l39 100
169 0 169 0 71 -172 71 -173 68 0 c51 0 67 3 67 14 0 8 -67 171 -148 363 -82
191 -168 394 -192 451 -39 91 -59 118 -73 95z m44 -355 c42 -101 75 -186 73
-189 -4 -8 -291 -6 -299 3 -7 7 136 367 145 368 3 0 40 -82 81 -182z"/>
<path d="M4660 3436 l0 -467 66 3 66 3 -2 219 -1 219 67 -6 c44 -4 81 -15 109
-31 88 -52 189 -190 243 -333 l27 -73 52 0 c60 0 60 -10 2 117 -69 151 -160
272 -241 321 -34 20 -36 32 -5 32 37 0 120 45 159 86 47 48 61 90 56 165 -6
77 -41 122 -132 169 l-68 35 -199 3 -199 4 0 -466z m335 412 c78 -20 115 -80
115 -188 0 -157 -75 -215 -272 -211 l-48 1 0 203 c0 112 3 207 8 211 9 9 141
-1 197 -16z"/>
<path d="M5940 3868 c-16 -40 -241 -585 -311 -751 -54 -131 -58 -147 -30 -147
18 0 41 52 131 293 l21 57 168 0 168 0 42 -102 c24 -57 56 -136 73 -175 l30
-73 69 0 c40 0 69 4 69 10 0 6 -9 29 -19 53 -11 23 -54 125 -97 227 -199 475
-271 635 -286 638 -9 2 -20 -10 -28 -30z m9 -211 c13 -34 45 -113 72 -176 27
-63 49 -120 49 -127 0 -9 -37 -12 -155 -11 -85 0 -155 2 -155 4 0 2 17 45 39
96 21 51 55 134 76 185 21 50 41 92 44 92 3 0 17 -28 30 -63z"/>
</g>
</svg>
