<?xml version="1.0" standalone="no"?>
<!DOCTYPE svg PUBLIC "-//W3C//DTD SVG 20010904//EN"
 "http://www.w3.org/TR/2001/REC-SVG-20010904/DTD/svg10.dtd">
<svg version="1.0" xmlns="http://www.w3.org/2000/svg"
 width="120.000000pt" height="120.000000pt" viewBox="0 0 120.000000 120.000000"
 preserveAspectRatio="xMidYMid meet">
<metadata>
Created by potrace 1.11, written by Peter Selinger 2001-2013
</metadata>
<g transform="translate(0.000000,120.000000) scale(0.100000,-0.100000)"
fill="#000000" stroke="none">
<path d="M582 1053 c-40 -8 -124 -62 -180 -117 -51 -49 -175 -224 -223 -316
-46 -87 -26 -252 40 -325 10 -11 22 -27 26 -35 8 -13 7 -13 -8 -1 -15 12 -17
12 -11 -3 4 -10 1 -16 -9 -16 -32 0 -25 -165 9 -218 14 -22 15 -22 292 -22
l277 0 40 39 c68 66 131 161 139 212 3 19 8 46 10 60 6 36 -14 122 -31 134
-11 8 -7 21 23 69 62 98 79 212 47 314 -20 63 -65 112 -133 143 -25 12 -58 31
-75 43 -16 12 -43 27 -58 34 -27 11 -126 14 -175 5z m91 -81 c16 -17 15 -20
-8 -40 -14 -12 -33 -22 -43 -21 -14 0 -14 2 3 9 19 7 18 9 -7 19 -31 12 -37
37 -10 44 34 9 49 7 65 -11z m232 -22 c3 -5 1 -10 -4 -10 -6 0 -11 5 -11 10 0
6 2 10 4 10 3 0 8 -4 11 -10z m-310 -20 c3 -5 1 -10 -4 -10 -6 0 -11 5 -11 10
0 6 2 10 4 10 3 0 8 -4 11 -10z m-67 -15 c12 -4 22 -13 22 -20 0 -7 7 -15 15
-19 8 -3 15 -12 15 -21 0 -8 5 -15 12 -15 9 0 9 -3 0 -12 -9 -9 -15 -9 -24 3
-14 17 -114 89 -124 89 -3 0 -2 -6 2 -12 5 -9 2 -9 -9 1 -9 7 -17 15 -17 18 0
6 79 -3 108 -12z m416 -16 c13 -23 15 -34 7 -42 -8 -8 -14 -8 -23 1 -9 9 -9
12 2 12 10 0 9 4 -3 18 -18 19 -23 42 -9 42 4 0 16 -14 26 -31z m-354 -9 c0
-5 -2 -10 -4 -10 -3 0 -8 5 -11 10 -3 6 -1 10 4 10 6 0 11 -4 11 -10z m175
-10 c-3 -5 -11 -10 -16 -10 -6 0 -7 5 -4 10 3 6 11 10 16 10 6 0 7 -4 4 -10z
m55 -5 c0 -8 -9 -15 -20 -15 -18 0 -25 -10 -17 -26 1 -3 -6 -10 -15 -15 -10
-6 -18 -17 -18 -24 0 -8 -2 -15 -4 -15 -2 0 -13 -3 -23 -6 -11 -4 -14 -3 -6 3
6 4 13 16 15 27 4 26 53 75 86 85 1 1 2 -6 2 -14z m-386 -6 c-2 -3 23 -16 56
-28 33 -12 60 -24 60 -26 0 -2 -3 -11 -6 -20 -6 -14 -8 -14 -26 2 -11 10 -22
17 -24 16 -12 -8 -24 -1 -24 14 0 9 -3 13 -6 10 -7 -7 -64 23 -64 33 0 3 9 6
19 6 11 0 18 -3 15 -7z m446 -47 c-1 -16 -2 -16 -14 1 -11 14 -15 15 -19 5 -4
-10 -8 -10 -16 2 -7 10 -6 17 1 22 17 10 48 -10 48 -30z m-545 -12 c3 -5 1
-10 -4 -10 -6 0 -11 5 -11 10 0 6 2 10 4 10 3 0 8 -4 11 -10z m462 -15 c-4 -8
-11 -15 -17 -15 -14 0 -13 27 3 33 16 6 21 1 14 -18z m-340 -19 c0 -8 -6 -12
-14 -9 -7 3 -10 9 -7 14 8 14 21 11 21 -5z m196 -21 c-3 -9 -8 -14 -10 -11 -3
3 -2 9 2 15 9 16 15 13 8 -4z m52 -5 c3 -6 -1 -7 -9 -4 -18 7 -21 14 -7 14 6
0 13 -4 16 -10z m245 -5 c11 -13 10 -14 -4 -9 -9 3 -16 10 -16 15 0 13 6 11
20 -6z m-170 -21 c0 -2 -7 -4 -15 -4 -8 0 -15 4 -15 10 0 5 7 7 15 4 8 -4 15
-8 15 -10z m-478 -12 c-7 -2 -12 -8 -12 -14 0 -6 7 -8 15 -4 11 4 15 -2 15
-20 0 -24 -1 -24 -25 -8 -25 16 -34 44 -14 44 5 0 7 4 4 10 -4 6 1 7 11 3 11
-4 13 -8 6 -11z m201 -11 c46 -18 26 -39 -30 -32 -8 1 -10 -5 -6 -15 4 -11 2
-15 -4 -11 -6 4 -16 1 -22 -7 -9 -11 -7 -15 8 -19 11 -3 22 0 24 6 1 5 10 8
17 5 29 -9 -25 -27 -67 -21 -41 5 -41 6 -40 47 2 34 6 42 25 44 12 2 22 8 22
13 0 10 31 6 73 -10z m368 -2 c11 -5 17 -14 14 -20 -7 -11 -45 7 -45 21 0 13
7 13 31 -1z m-609 -24 c3 -13 1 -22 -3 -19 -9 5 -13 44 -5 44 2 0 6 -11 8 -25z
m114 -5 c1 -36 -3 -37 -27 -9 -21 24 -17 39 9 39 12 0 17 -9 18 -30z m564 8
c0 -6 -7 -7 -16 -4 -9 3 -18 6 -20 6 -3 0 -3 4 1 10 7 11 35 2 35 -12z m-240
-8 c0 -5 -4 -10 -10 -10 -5 0 -10 5 -10 10 0 6 5 10 10 10 6 0 10 -4 10 -10z
m-346 -59 c-6 -6 -24 19 -24 34 1 6 7 1 15 -9 8 -11 12 -22 9 -25z m437 -28
c30 -18 34 -38 8 -38 -8 -1 -23 -6 -33 -12 -21 -12 -66 2 -66 19 0 5 5 6 10 3
6 -3 10 1 10 9 0 8 8 20 18 25 22 13 19 14 53 -6z m-101 -13 c0 -5 -6 -10 -14
-10 -8 0 -18 5 -21 10 -3 6 3 10 14 10 12 0 21 -4 21 -10z m-465 -34 c21 -8
41 -19 43 -25 4 -13 -38 1 -71 24 -26 18 -23 18 28 1z m616 -23 c16 -10 29
-21 29 -25 0 -14 -17 -8 -46 17 -34 29 -25 33 17 8z m-191 -23 c12 -8 9 -10
-13 -10 -16 0 -26 4 -22 10 8 12 16 12 35 0z m-375 -10 c3 -5 2 -10 -4 -10 -5
0 -13 5 -16 10 -3 6 -2 10 4 10 5 0 13 -4 16 -10z m323 -15 c6 0 12 -4 12 -10
0 -19 -35 -10 -38 10 -2 11 0 16 5 10 4 -5 14 -10 21 -10z m-115 -82 c4 -7 15
-13 23 -13 8 0 12 4 9 10 -4 6 1 7 10 3 14 -5 13 -9 -9 -32 -22 -22 -28 -24
-36 -11 -6 9 -5 17 3 22 8 5 0 11 -20 19 -18 6 -33 15 -33 19 0 12 44 -1 53
-17z m112 -41 c-3 -3 -11 0 -18 7 -9 10 -8 11 6 5 10 -3 15 -9 12 -12z m-195
4 c0 -2 -7 -6 -15 -10 -8 -3 -15 -1 -15 4 0 6 7 10 15 10 8 0 15 -2 15 -4z
m145 -16 c-3 -5 -10 -10 -16 -10 -5 0 -9 5 -9 10 0 6 7 10 16 10 8 0 12 -4 9
-10z"/>
<path d="M425 660 c4 -6 11 -8 16 -5 14 9 11 15 -7 15 -8 0 -12 -5 -9 -10z"/>
<path d="M756 564 c-4 -10 -1 -14 6 -12 15 5 23 28 10 28 -5 0 -13 -7 -16 -16z"/>
<path d="M1037 343 c-4 -3 -7 -11 -7 -17 0 -6 5 -5 12 2 6 6 9 14 7 17 -3 3
-9 2 -12 -2z"/>
</g>
</svg>
