<?xml version="1.0" standalone="no"?>
<!DOCTYPE svg PUBLIC "-//W3C//DTD SVG 20010904//EN"
 "http://www.w3.org/TR/2001/REC-SVG-20010904/DTD/svg10.dtd">
<svg version="1.0" xmlns="http://www.w3.org/2000/svg"
 width="1080.000000pt" height="1080.000000pt" viewBox="0 0 1080.000000 1080.000000"
 preserveAspectRatio="xMidYMid meet">
<metadata>
Created by potrace 1.11, written by Peter Selinger 2001-2013
</metadata>
<g transform="translate(0.000000,1080.000000) scale(0.100000,-0.100000)"
fill="#000000" stroke="none">
<path d="M2653 6869 c-198 -18 -378 -83 -555 -201 -68 -46 -219 -193 -275
-268 -100 -135 -183 -335 -209 -505 -57 -378 65 -748 335 -1013 179 -176 404
-288 645 -321 92 -13 271 -13 341 -1 31 6 95 5 170 -2 184 -17 364 15 540 96
l75 35 2 178 c0 98 2 336 2 528 l1 350 285 1 284 2 -2 48 c-1 27 -5 71 -8 97
-6 47 -7 49 -33 43 -158 -34 -269 -27 -384 26 -160 74 -248 248 -233 460 7
100 33 184 76 246 16 23 30 47 30 52 0 11 -127 72 -205 98 -133 45 -206 53
-439 50 -122 -1 -250 0 -286 3 -36 4 -106 3 -157 -2z m72 -108 c-136 -66 -325
-224 -392 -328 -10 -15 -26 -37 -36 -48 -36 -39 -127 -242 -159 -355 -32 -113
-33 -119 -33 -315 0 -189 2 -206 29 -305 57 -210 154 -378 305 -531 101 -101
171 -154 290 -215 39 -20 71 -39 71 -42 0 -10 -186 9 -270 28 -249 54 -480
204 -642 415 -132 173 -212 421 -210 649 1 187 43 356 124 505 192 354 542
570 938 580 l65 1 -80 -39z"/>
<path d="M3876 6560 c-45 -113 -40 -282 13 -374 15 -28 47 -64 70 -81 39 -27
50 -30 125 -30 91 0 136 19 136 56 0 30 -96 217 -144 282 -54 73 -160 187
-174 187 -5 0 -17 -18 -26 -40z"/>
<path d="M3980 5400 l0 -150 114 0 114 0 25 78 c34 105 49 171 41 184 -16 25
-76 38 -184 38 l-110 0 0 -150z"/>
<path d="M3980 4975 l0 -75 38 43 c43 46 72 87 72 99 0 5 -25 8 -55 8 l-55 0
0 -75z"/>
</g>
</svg>
